<?xml version="1.0" encoding="UTF-8"?>
<svg xmlns="http://www.w3.org/2000/svg" xmlns:xlink="http://www.w3.org/1999/xlink" width="8rem" height="8rem" viewBox="0 0 375 374.999991" version="1.2">
<defs>
<clipPath id="clip1">
  <path d="M 14.761719 45.066406 L 362 45.066406 L 362 330.066406 L 14.761719 330.066406 Z M 14.761719 45.066406 "/>
</clipPath>
<clipPath id="clip2">
  <path d="M 37 274 L 345 274 L 345 330.066406 L 37 330.066406 Z M 37 274 "/>
</clipPath>
<clipPath id="clip3">
  <path d="M 120 285 L 258 285 L 258 330.066406 L 120 330.066406 Z M 120 285 "/>
</clipPath>
</defs>
<g id="surface1">
<g clip-path="url(#clip1)" clip-rule="nonzero">
<path style=" stroke:none;fill-rule:nonzero;fill:rgb(19.999695%,30.198669%,36.079407%);fill-opacity:1;" d="M 187.890625 45.097656 C 92.289062 45.097656 14.761719 122.425781 14.761719 217.785156 C 14.761719 313.140625 92.289062 390.472656 187.890625 390.472656 C 283.492188 390.472656 361.023438 313.140625 361.023438 217.785156 C 361.023438 122.425781 283.492188 45.097656 187.890625 45.097656 Z M 187.890625 45.097656 "/>
</g>
<path style=" stroke:none;fill-rule:nonzero;fill:rgb(85.879517%,73.329163%,0%);fill-opacity:1;" d="M 105.617188 183.539062 L 93.125 183.121094 L 89.289062 171.707031 L 85.382812 183.121094 L 72.890625 183.539062 L 82.9375 190.5 L 79.171875 202.679688 L 89.289062 195.09375 L 99.335938 202.679688 L 95.570312 190.5 Z M 105.617188 183.539062 "/>
<path style=" stroke:none;fill-rule:nonzero;fill:rgb(85.879517%,73.329163%,0%);fill-opacity:1;" d="M 93.195312 186.324219 L 95.359375 178.25 L 88.589844 183.191406 L 81.265625 178.667969 L 84.195312 186.601562 L 77.285156 192.171875 L 86.078125 191.890625 L 89.007812 200.105469 L 91.660156 191.683594 L 100.175781 191.472656 Z M 93.195312 186.324219 "/>
<path style=" stroke:none;fill-rule:nonzero;fill:rgb(85.879517%,73.329163%,0%);fill-opacity:1;" d="M 263.882812 93.472656 L 251.464844 93.054688 L 247.554688 81.640625 L 243.648438 93.054688 L 231.226562 93.472656 L 241.273438 100.433594 L 237.507812 112.613281 L 247.554688 105.027344 L 257.675781 112.613281 L 253.90625 100.433594 Z M 263.882812 93.472656 "/>
<path style=" stroke:none;fill-rule:nonzero;fill:rgb(85.879517%,73.329163%,0%);fill-opacity:1;" d="M 251.535156 96.253906 L 253.695312 88.183594 L 246.925781 93.125 L 239.601562 88.597656 L 242.460938 96.605469 L 235.621094 102.171875 L 244.414062 101.824219 L 247.277344 110.039062 L 250 101.617188 L 258.441406 101.40625 Z M 251.535156 96.253906 "/>
<g clip-path="url(#clip2)" clip-rule="nonzero">
<path style=" stroke:none;fill-rule:nonzero;fill:rgb(83.529663%,83.918762%,78.819275%);fill-opacity:1;" d="M 187.890625 285.996094 C 94.035156 285.996094 37.441406 303.1875 37.441406 303.1875 C 67.238281 355.324219 123.414062 390.472656 187.890625 390.472656 C 252.371094 390.472656 308.546875 355.324219 338.34375 303.1875 C 368.140625 251.054688 281.75 285.996094 187.890625 285.996094 "/>
</g>
<g clip-path="url(#clip3)" clip-rule="nonzero">
<path style=" stroke:none;fill-rule:nonzero;fill:rgb(74.899292%,74.899292%,74.508667%);fill-opacity:0.498;" d="M 250.136719 317.667969 C 248.742188 315.789062 247.765625 313.492188 246.925781 310.914062 C 244.695312 303.746094 244.277344 294.699219 242.949219 288.015625 C 226.410156 286.761719 208.058594 285.996094 187.890625 285.996094 C 162.492188 285.996094 139.8125 287.25 120.203125 289.128906 C 121.25 296.714844 123.34375 311.054688 125.367188 321.007812 C 126.34375 325.808594 127.25 329.636719 128.019531 331.167969 C 130.949219 337.085938 155.792969 336.179688 155.792969 336.179688 C 155.792969 336.179688 189.078125 331.378906 195.359375 329.429688 C 201.707031 327.550781 237.925781 351.910156 250.136719 345.371094 C 262.347656 338.828125 258.09375 328.59375 250.136719 317.667969 "/>
</g>
<path style=" stroke:none;fill-rule:nonzero;fill:rgb(85.879517%,73.329163%,0%);fill-opacity:1;" d="M 314.128906 201.011719 L 301.707031 200.59375 L 297.800781 189.175781 L 293.890625 200.59375 L 281.46875 201.011719 L 291.519531 207.96875 L 287.75 220.152344 L 297.800781 212.5625 L 307.917969 220.152344 L 304.148438 207.96875 Z M 314.128906 201.011719 "/>
<path style=" stroke:none;fill-rule:nonzero;fill:rgb(85.879517%,73.329163%,0%);fill-opacity:1;" d="M 301.777344 203.863281 L 303.941406 195.71875 L 297.171875 200.660156 L 289.84375 196.136719 L 292.703125 204.140625 L 285.867188 209.710938 L 294.660156 209.363281 L 297.519531 217.574219 L 300.242188 209.152344 L 308.683594 208.945312 Z M 301.777344 203.863281 "/>
<path style=" stroke:none;fill-rule:nonzero;fill:rgb(55.688477%,55.688477%,55.688477%);fill-opacity:1;" d="M 171.773438 294.210938 C 168.144531 291.566406 161.863281 293.933594 157.675781 299.5 C 153.558594 305.136719 150.558594 308.757812 154.1875 311.472656 C 157.816406 314.117188 168.910156 311.472656 173.027344 305.902344 C 177.214844 300.335938 175.332031 296.925781 171.773438 294.210938 "/>
<path style=" stroke:none;fill-rule:nonzero;fill:rgb(55.688477%,55.688477%,55.688477%);fill-opacity:1;" d="M 217.96875 299.570312 C 213.851562 293.933594 207.5 291.566406 203.871094 294.28125 C 200.242188 296.925781 198.429688 300.335938 202.546875 305.972656 C 206.664062 311.609375 217.757812 314.1875 221.386719 311.542969 C 225.085938 308.828125 222.15625 305.136719 217.96875 299.570312 "/>
<path style=" stroke:none;fill-rule:nonzero;fill:rgb(83.918762%,88.62915%,82.749939%);fill-opacity:1;" d="M 216.78125 263.097656 L 213.710938 227.25 L 161.863281 227.25 L 158.722656 263.933594 C 158.722656 263.933594 157.816406 299.777344 159.699219 300.824219 C 161.582031 301.9375 170.515625 301.867188 172.957031 300.542969 C 175.402344 299.222656 182.519531 263.515625 182.519531 263.515625 L 185.726562 247.367188 C 185.726562 247.367188 186.214844 242.632812 187.960938 242.632812 C 189.707031 242.632812 190.125 247.296875 190.125 247.296875 L 192.984375 263.097656 C 192.984375 263.097656 199.683594 299.292969 202.195312 300.613281 C 204.777344 301.9375 215.105469 302.003906 216.710938 300.335938 C 218.316406 298.664062 216.78125 263.097656 216.78125 263.097656 "/>
<path style=" stroke:none;fill-rule:nonzero;fill:rgb(50.588989%,50.979614%,50.588989%);fill-opacity:1;" d="M 230.878906 237.691406 L 230.457031 246.183594 C 230.457031 246.183594 230.320312 247.4375 229.691406 247.714844 C 229.0625 247.992188 230.808594 247.644531 230.949219 246.113281 L 231.296875 237.550781 Z M 230.878906 237.691406 "/>
<path style=" stroke:none;fill-rule:nonzero;fill:rgb(50.588989%,50.979614%,50.588989%);fill-opacity:1;" d="M 229.0625 236.367188 L 226.273438 244.441406 C 226.273438 244.441406 225.921875 245.765625 225.15625 245.835938 C 224.386719 245.90625 226.273438 246.042969 227.039062 244.652344 L 229.832031 236.578125 Z M 229.0625 236.367188 "/>
<path style=" stroke:none;fill-rule:nonzero;fill:rgb(64.709473%,64.709473%,64.709473%);fill-opacity:1;" d="M 237.648438 241.3125 C 237.648438 241.3125 236.667969 236.925781 236.390625 236.019531 L 236.109375 230.800781 C 236.109375 230.800781 231.996094 229.964844 227.597656 228.503906 C 223.203125 227.042969 225.574219 231.425781 225.085938 231.707031 C 224.597656 231.984375 223.480469 234.070312 221.597656 236.507812 C 220.480469 237.273438 219.292969 238.316406 219.503906 239.015625 C 219.503906 239.015625 219.992188 240.265625 221.667969 240.546875 C 221.667969 240.546875 222.222656 240.683594 222.714844 240.265625 L 224.386719 238.875 L 225.574219 237.066406 L 223.480469 242.078125 L 222.503906 243.816406 C 222.292969 244.375 222.574219 244.722656 222.574219 244.722656 C 223.203125 245.695312 225.085938 245.835938 225.085938 245.835938 C 226.691406 245.695312 228.367188 239.082031 228.367188 239.082031 C 228.367188 239.082031 228.644531 238.316406 228.992188 237.414062 L 228.921875 238.109375 L 226.550781 246.113281 C 226.480469 246.601562 226.898438 247.019531 226.898438 247.019531 C 227.808594 247.855469 229.550781 247.714844 229.550781 247.714844 C 230.949219 247.4375 230.808594 243.050781 230.808594 243.050781 C 230.808594 243.050781 230.949219 239.640625 231.15625 237.621094 L 231.085938 241.449219 L 230.949219 245.90625 C 231.015625 246.53125 231.4375 246.808594 231.4375 246.808594 C 232.414062 247.574219 234.019531 247.226562 234.019531 247.226562 C 234.644531 247.019531 234.855469 245.972656 234.855469 244.929688 C 234.925781 245.417969 235.414062 245.765625 235.414062 245.765625 C 236.460938 246.460938 237.785156 246.042969 237.785156 246.042969 C 238.972656 245.417969 237.648438 241.3125 237.648438 241.3125 "/>
<path style=" stroke:none;fill-rule:nonzero;fill:rgb(50.588989%,50.979614%,50.588989%);fill-opacity:1;" d="M 234.085938 237.484375 L 234.714844 245.625 C 234.714844 245.625 234.644531 246.878906 234.019531 247.15625 C 233.390625 247.4375 235.066406 247.019531 235.132812 245.488281 Z M 234.085938 237.484375 "/>
<path style=" stroke:none;fill-rule:nonzero;fill:rgb(74.119568%,75.689697%,73.728943%);fill-opacity:1;" d="M 222.714844 229.964844 L 223.691406 231.636719 L 236.601562 230.941406 L 236.949219 228.78125 C 236.949219 228.78125 226.132812 227.597656 222.714844 229.964844 "/>
<path style=" stroke:none;fill-rule:nonzero;fill:rgb(50.588989%,50.979614%,50.588989%);fill-opacity:1;" d="M 145.324219 246.183594 L 144.90625 237.691406 L 144.488281 237.484375 L 144.90625 246.042969 C 145.113281 247.574219 146.160156 247.644531 146.160156 247.644531 C 145.464844 247.4375 145.324219 246.183594 145.324219 246.183594 "/>
<path style=" stroke:none;fill-rule:nonzero;fill:rgb(50.588989%,50.979614%,50.588989%);fill-opacity:1;" d="M 149.511719 244.441406 L 146.71875 236.367188 L 145.953125 236.578125 L 148.742188 244.652344 C 149.511719 246.042969 150.628906 245.835938 150.628906 245.835938 C 149.859375 245.765625 149.511719 244.441406 149.511719 244.441406 "/>
<path style=" stroke:none;fill-rule:nonzero;fill:rgb(64.709473%,64.709473%,64.709473%);fill-opacity:1;" d="M 154.117188 236.507812 C 152.234375 234.140625 151.117188 231.984375 150.628906 231.707031 C 150.140625 231.425781 148.117188 228.503906 148.117188 228.503906 C 143.71875 229.964844 139.601562 230.800781 139.601562 230.800781 L 139.324219 236.019531 C 139.113281 236.925781 138.066406 241.3125 138.066406 241.3125 C 138.066406 241.3125 136.742188 245.417969 138.066406 246.113281 C 139.394531 246.808594 139.324219 246.53125 140.4375 245.835938 C 140.4375 245.835938 140.929688 245.417969 140.996094 245 C 140.996094 246.042969 141.207031 247.019531 141.835938 247.296875 C 141.835938 247.296875 143.441406 247.644531 144.417969 246.878906 C 144.417969 246.878906 144.835938 246.601562 144.90625 245.972656 L 144.765625 241.519531 L 144.695312 237.691406 C 144.90625 239.640625 145.046875 243.121094 145.046875 243.121094 C 145.046875 243.121094 144.90625 247.503906 146.300781 247.785156 C 147.695312 248.0625 148.117188 247.921875 148.953125 247.089844 C 148.953125 247.089844 149.371094 246.671875 149.300781 246.183594 L 146.929688 238.179688 L 146.859375 237.484375 C 147.207031 238.386719 147.488281 239.152344 147.488281 239.152344 C 147.488281 239.152344 149.164062 245.765625 150.765625 245.90625 C 152.371094 246.042969 152.582031 245.765625 153.28125 244.792969 C 153.28125 244.792969 153.558594 244.375 153.347656 243.886719 L 152.371094 242.144531 L 150.277344 237.132812 L 151.464844 238.945312 L 153.140625 240.335938 C 153.699219 240.753906 154.1875 240.613281 154.1875 240.613281 C 155.863281 240.40625 156.351562 239.082031 156.351562 239.082031 C 156.488281 238.316406 155.234375 237.273438 154.117188 236.507812 "/>
<path style=" stroke:none;fill-rule:nonzero;fill:rgb(50.588989%,50.979614%,50.588989%);fill-opacity:1;" d="M 141.066406 245.625 L 141.695312 237.484375 L 140.578125 245.488281 C 140.648438 247.089844 141.765625 247.15625 141.765625 247.15625 C 141.136719 246.878906 141.066406 245.625 141.066406 245.625 "/>
<path style=" stroke:none;fill-rule:nonzero;fill:rgb(74.119568%,75.689697%,73.728943%);fill-opacity:1;" d="M 138.835938 228.78125 L 139.183594 230.941406 L 152.09375 231.636719 L 153.070312 229.964844 C 149.652344 227.597656 138.835938 228.78125 138.835938 228.78125 "/>
<path style=" stroke:none;fill-rule:nonzero;fill:rgb(68.629456%,69.799805%,67.83905%);fill-opacity:1;" d="M 210.640625 127.367188 L 165.28125 127.367188 C 161.582031 127.367188 158.582031 130.082031 158.582031 133.425781 L 158.582031 174.492188 C 158.582031 177.832031 161.582031 180.546875 165.28125 180.546875 L 210.640625 180.546875 C 214.339844 180.546875 217.339844 177.832031 217.339844 174.492188 L 217.339844 133.425781 C 217.410156 130.082031 214.339844 127.367188 210.640625 127.367188 "/>
<path style=" stroke:none;fill-rule:nonzero;fill:rgb(75.289917%,78.819275%,74.119568%);fill-opacity:1;" d="M 210.640625 129.597656 L 165.28125 129.597656 C 161.582031 129.597656 158.582031 132.589844 158.582031 136.277344 L 158.582031 181.519531 C 158.582031 185.210938 161.582031 188.203125 165.28125 188.203125 L 210.640625 188.203125 C 214.339844 188.203125 217.339844 185.210938 217.339844 181.519531 L 217.339844 136.277344 C 217.410156 132.589844 214.339844 129.597656 210.640625 129.597656 "/>
<path style=" stroke:none;fill-rule:nonzero;fill:rgb(87.449646%,91.758728%,86.268616%);fill-opacity:1;" d="M 222.15625 167.949219 C 220.757812 159.109375 203.59375 154.167969 189.078125 154.167969 L 186.914062 154.167969 C 172.398438 154.167969 154.816406 159.664062 153.835938 167.949219 C 153.070312 174.210938 153.90625 191.125 154.324219 199.0625 C 163.398438 206.789062 175.191406 211.449219 188.03125 211.449219 C 200.941406 211.449219 212.664062 206.789062 221.734375 199.0625 C 222.222656 191.125 223.203125 174.558594 222.15625 167.949219 "/>
<path style=" stroke:none;fill-rule:nonzero;fill:rgb(87.449646%,91.758728%,86.268616%);fill-opacity:1;" d="M 224.875 167.949219 C 223.480469 159.109375 203.523438 154.167969 189.007812 154.167969 L 186.84375 154.167969 C 172.328125 154.167969 151.882812 159.664062 150.90625 167.949219 C 150.140625 174.210938 161.515625 219.386719 161.863281 227.25 C 161.863281 227.25 174.074219 231.21875 186.636719 231.21875 C 199.195312 231.21875 213.988281 227.25 213.988281 227.25 C 214.410156 219.386719 225.921875 174.558594 224.875 167.949219 "/>
<path style=" stroke:none;fill-rule:nonzero;fill:rgb(83.918762%,88.62915%,82.749939%);fill-opacity:1;" d="M 187.960938 122.289062 C 175.46875 122.289062 165.351562 130.570312 165.351562 142.054688 C 165.351562 160.359375 175.46875 165.582031 187.960938 165.582031 C 200.453125 165.582031 210.570312 160.359375 210.570312 142.054688 C 210.570312 130.5 200.453125 122.289062 187.960938 122.289062 "/>
<path style=" stroke:none;fill-rule:nonzero;fill:rgb(89.7995%,91.758728%,89.408875%);fill-opacity:1;" d="M 187.960938 122.289062 C 175.46875 122.289062 165.351562 130.570312 165.351562 142.054688 C 165.351562 150.6875 167.585938 156.394531 171.285156 160.011719 L 204.640625 128.484375 C 200.523438 124.585938 194.589844 122.289062 187.960938 122.289062 "/>
<path style=" stroke:none;fill-rule:nonzero;fill:rgb(60.778809%,60.389709%,54.899597%);fill-opacity:1;" d="M 187.960938 129.597656 C 178.121094 129.597656 170.167969 135.375 170.167969 144.421875 C 170.167969 160.292969 178.121094 164.050781 187.960938 164.050781 C 197.800781 164.050781 205.757812 160.292969 205.757812 144.421875 C 205.757812 135.441406 197.800781 129.597656 187.960938 129.597656 "/>
<path style=" stroke:none;fill-rule:nonzero;fill:rgb(55.688477%,55.288696%,52.159119%);fill-opacity:1;" d="M 199.476562 132.867188 L 173.796875 158.480469 C 177.074219 162.796875 182.167969 164.050781 187.960938 164.050781 C 197.800781 164.050781 205.757812 160.292969 205.757812 144.421875 C 205.757812 139.480469 203.3125 135.441406 199.476562 132.867188 "/>
<path style=" stroke:none;fill-rule:nonzero;fill:rgb(72.158813%,73.728943%,71.759033%);fill-opacity:1;" d="M 170.375 179.292969 L 161.722656 202.542969 L 158.863281 211.3125 C 159.070312 211.382812 161.863281 205.605469 163.328125 203.027344 C 166.1875 196.347656 172.609375 181.660156 170.375 179.292969 "/>
<path style=" stroke:none;fill-rule:nonzero;fill:rgb(72.158813%,73.728943%,71.759033%);fill-opacity:1;" d="M 214.128906 202.542969 L 205.476562 179.292969 C 203.242188 181.660156 209.734375 196.347656 212.523438 203.027344 C 213.992188 205.605469 216.78125 211.382812 216.992188 211.3125 Z M 214.128906 202.542969 "/>
<path style=" stroke:none;fill-rule:nonzero;fill:rgb(87.449646%,91.758728%,86.268616%);fill-opacity:1;" d="M 236.949219 215.070312 C 234.085938 184.515625 224.457031 166.277344 224.457031 166.277344 L 206.175781 180.6875 C 206.175781 180.6875 207.917969 186.046875 211.898438 198.015625 C 213.640625 203.308594 218.945312 215.417969 220.199219 219.105469 C 220.757812 220.777344 222.644531 229.964844 222.644531 229.964844 C 222.644531 229.964844 227.320312 228.78125 231.574219 229.0625 C 235.761719 229.410156 236.878906 229.199219 236.878906 229.199219 C 237.855469 222.65625 236.949219 215.070312 236.949219 215.070312 "/>
<path style=" stroke:none;fill-rule:nonzero;fill:rgb(87.449646%,91.758728%,86.268616%);fill-opacity:1;" d="M 151.535156 166.277344 C 151.535156 166.277344 141.695312 184.652344 138.835938 215.210938 C 135.972656 245.765625 137.859375 222.378906 138.835938 228.921875 C 138.835938 228.921875 139.882812 228.851562 144 228.503906 C 148.253906 228.15625 153.070312 229.964844 153.070312 229.964844 C 153.070312 229.964844 154.882812 220.988281 155.441406 219.316406 C 156.699219 215.625 162.210938 203.375 164.027344 198.085938 C 168.074219 186.046875 169.75 180.753906 169.75 180.753906 Z M 151.535156 166.277344 "/>
</g>
</svg>
